<svg xmlns="http://www.w3.org/2000/svg" width="1200" height="1600" viewBox="0 0 1200 1600" id="developer-fall-in-love"><g fill="none" fill-rule="evenodd"><g fill-rule="nonzero" transform="translate(280 106)"><g transform="translate(150.076 903)"><g><path fill="#C4C4C4" d="M23,442.000372 C37,429.000372 89.334,410.000372 114,400.000372 L180,366.000372 L193,427.000372 L193,453.000372 C193,464.600372 183.598,474.000372 172,474.000372 L23,474.000372 C16.334,462.670372 11.217,452.940372 23,442.000372 Z"></path><path fill="#EBBAAA" d="M23,442.000372 C37,429.000372 89.334,410.000372 114,400.000372 L180,366.000372 L193,427.000372 L193,453.000372 C193,464.600372 183.598,474.000372 172,474.000372 L23,474.000372 C16.334,462.670372 11.217,452.940372 23,442.000372 Z"></path><path fill="#2E2622" d="M0,485.000372 C0,473.950372 8.954,465.000372 20,465.000372 L197,465.000372 L201,485.000372 L0,485.000372 Z"></path><path fill="#2E2622" d="M45.818,440.820372 C45.818,440.820372 45.818,440.820372 45.818,440.820372 L45.807,440.840372 L45.76,440.920372 C45.717,441.000372 45.651,441.110372 45.566,441.260372 C45.396,441.550372 45.146,441.980372 44.84,442.520372 C44.225,443.600372 43.387,445.090372 42.493,446.760372 C40.606,450.290372 38.808,453.960372 38.064,456.190372 C37.583,457.630372 37.53,459.290372 37.698,460.810372 C37.778,461.530372 37.898,462.120372 37.988,462.500372 C38.032,462.690372 38.068,462.810372 38.084,462.870372 C38.087,462.880372 38.089,462.890372 38.091,462.890372 C39.519,467.320372 37.115,472.090372 32.688,473.560372 C28.235,475.050372 23.421,472.640372 21.937,468.190372 L29.935,465.520372 C21.937,468.190372 21.936,468.190372 21.935,468.180372 L21.933,468.180372 L21.93,468.170372 L21.923,468.150372 L21.906,468.090372 C21.893,468.060372 21.879,468.010372 21.864,467.960372 C21.833,467.860372 21.795,467.740372 21.752,467.590372 C21.667,467.300372 21.562,466.910372 21.45,466.440372 C21.228,465.500372 20.972,464.220372 20.802,462.690372 C20.471,459.710372 20.417,455.370372 21.937,450.810372 C23.193,447.040372 25.644,442.210372 27.508,438.740372 C28.488,436.910372 29.401,435.280372 30.067,434.110372 C30.401,433.520372 30.676,433.040372 30.868,432.710372 C30.965,432.550372 31.041,432.420372 31.094,432.330372 L31.157,432.220372 L31.182,432.180372 C31.182,432.180372 31.183,432.180372 38.26,436.360372 L31.183,432.180372 C33.571,428.130372 38.783,426.790372 42.825,429.180372 C46.866,431.570372 48.206,436.780372 45.818,440.820372 Z"></path><path fill="#2E2622" d="M38.795,471.960372 C38.797,471.950372 38.798,471.950372 29.5,470.000372 C20.202,468.050372 20.204,468.050372 20.204,468.040372 L20.207,468.030372 L20.212,468.000372 L20.225,467.940372 C20.235,467.900372 20.247,467.850372 20.26,467.790372 C20.287,467.670372 20.323,467.520372 20.367,467.340372 C20.455,466.990372 20.58,466.520372 20.747,465.960372 C21.081,464.840372 21.59,463.310372 22.332,461.520372 C23.807,457.960372 26.25,453.220372 30.163,448.460372 C38.226,438.660372 51.98,429.500372 74,429.500372 C95.845,429.500372 111.289,438.490372 121.15,447.480372 C126.041,451.940372 129.566,456.400372 131.888,459.770372 C133.053,461.460372 133.927,462.900372 134.529,463.950372 C134.831,464.480372 135.065,464.910372 135.234,465.240372 C135.319,465.400372 135.388,465.530372 135.44,465.640372 C135.467,465.690372 135.489,465.740372 135.508,465.770372 L135.532,465.820372 L135.543,465.840372 L135.547119,465.850372 C135.549,465.860372 135.551,465.860372 127,470.000372 C118.448,474.140372 118.45,474.140372 118.452,474.150372 L118.456,474.150372 L118.462,474.170372 L118.47,474.180372 L118.471,474.180372 C118.465,474.170372 118.444,474.130372 118.41,474.070372 C118.341,473.930372 118.216,473.700372 118.033,473.380372 C117.666,472.740372 117.071,471.760372 116.236,470.540372 C114.559,468.100372 111.959,464.810372 108.349,461.520372 C101.211,455.010372 90.154,448.500372 74,448.500372 C58.019,448.500372 49.524,454.840372 44.837,460.540372 C42.374,463.530372 40.818,466.540372 39.887,468.790372 C39.425,469.910372 39.129,470.800372 38.96,471.370372 C38.875,471.660372 38.823,471.860372 38.797,471.960372 C38.785,472.010372 38.779,472.040372 38.779,472.040372 L38.784,472.010372 L38.79,471.990372 L38.793,471.970372 L38.795,471.960372 Z"></path><path fill="#DCB1A3" d="M30.204,454.470372 C28.843,446.290372 34.363,438.570372 42.534,437.200372 L60.534,434.200372 C68.706,432.840372 76.434,438.360372 77.796,446.530372 C79.158,454.710372 73.638,462.430372 65.466,463.800372 L47.466,466.800372 C39.295,468.160372 31.566,462.640372 30.204,454.470372 Z"></path><path fill="#C4C4C4" d="M415,442.000372 C401,429.000372 348.667,410.000372 324,400.000372 L258,366.000372 L245,427.000372 L245,453.000372 C245,464.600372 254.402,474.000372 266,474.000372 L415,474.000372 C421.667,462.670372 426.783,452.940372 415,442.000372 Z"></path><path fill="#EBBAAA" d="M415,442.000372 C401,429.000372 348.667,410.000372 324,400.000372 L258,366.000372 L245,427.000372 L245,453.000372 C245,464.600372 254.402,474.000372 266,474.000372 L415,474.000372 C421.667,462.670372 426.783,452.940372 415,442.000372 Z"></path><path fill="#2E2622" d="M438,485.000372 C438,473.950372 429.046,465.000372 418,465.000372 L241,465.000372 L237,485.000372 L438,485.000372 Z"></path><path fill="#2E2622" d="M392.182,440.820372 C392.182,440.820372 392.182,440.820372 392.182,440.820372 L392.194,440.840372 L392.241,440.920372 C392.284,441.000372 392.349,441.110372 392.434,441.260372 C392.605,441.550372 392.854,441.980372 393.16,442.520372 C393.775,443.600372 394.613,445.090372 395.507,446.760372 C397.394,450.290372 399.192,453.960372 399.936,456.190372 C400.417,457.630372 400.47,459.290372 400.302,460.810372 C400.222,461.530372 400.103,462.120372 400.012,462.500372 C399.968,462.690372 399.932,462.810372 399.916,462.870372 C399.913,462.880372 399.911,462.890372 399.909,462.890372 C398.481,467.320372 400.886,472.090372 405.312,473.560372 C409.765,475.050372 414.579,472.640372 416.064,468.190372 L408.066,465.520372 C416.064,468.190372 416.065,468.190372 416.065,468.180372 L416.067,468.180372 L416.07,468.170372 L416.078,468.150372 L416.095,468.090372 C416.107,468.060372 416.121,468.010372 416.137,467.960372 C416.168,467.860372 416.205,467.740372 416.248,467.590372 C416.333,467.300372 416.438,466.910372 416.55,466.440372 C416.772,465.500372 417.028,464.220372 417.198,462.690372 C417.529,459.710372 417.583,455.370372 416.064,450.810372 C414.808,447.040372 412.356,442.210372 410.493,438.740372 C409.512,436.910372 408.6,435.280372 407.933,434.110372 C407.599,433.520372 407.325,433.040372 407.132,432.710372 C407.035,432.550372 406.959,432.420372 406.906,432.330372 L406.844,432.220372 L406.818,432.180372 C406.818,432.180372 406.818,432.180372 399.74,436.360372 L406.818,432.180372 C404.43,428.130372 399.217,426.790372 395.176,429.180372 C391.134,431.570372 389.794,436.780372 392.182,440.820372 Z"></path><path fill="#2E2622" d="M399.205,471.960372 C399.204,471.950372 399.203,471.950372 408.501,470.000372 C417.798,468.050372 417.796,468.050372 417.796,468.040372 L417.794,468.030372 L417.788,468.000372 L417.775,467.940372 C417.765,467.900372 417.754,467.850372 417.74,467.790372 C417.713,467.670372 417.678,467.520372 417.633,467.340372 C417.545,466.990372 417.421,466.520372 417.253,465.960372 C416.919,464.840372 416.41,463.310372 415.669,461.520372 C414.193,457.960372 411.75,453.220372 407.837,448.460372 C399.774,438.660372 386.02,429.500372 364.001,429.500372 C342.155,429.500372 326.712,438.490372 316.85,447.480372 C311.959,451.940372 308.434,456.400372 306.112,459.770372 C304.947,461.460372 304.073,462.900372 303.471,463.950372 C303.17,464.480372 302.935,464.910372 302.766,465.240372 C302.681,465.400372 302.613,465.530372 302.56,465.640372 C302.534,465.690372 302.511,465.740372 302.493,465.770372 L302.468,465.820372 L302.458,465.840372 L302.452881,465.850372 C302.451,465.860372 302.449,465.860372 311.001,470.000372 C319.552,474.140372 319.55,474.140372 319.548,474.150372 L319.545,474.150372 L319.539,474.170372 L319.53,474.180372 L319.529,474.180372 C319.536,474.170372 319.556,474.130372 319.59,474.070372 C319.659,473.930372 319.785,473.700372 319.968,473.380372 C320.334,472.740372 320.929,471.760372 321.764,470.540372 C323.442,468.100372 326.042,464.810372 329.651,461.520372 C336.79,455.010372 347.846,448.500372 364.001,448.500372 C379.981,448.500372 388.477,454.840372 393.164,460.540372 C395.626,463.530372 397.183,466.540372 398.114,468.790372 C398.575,469.910372 398.871,470.800372 399.041,471.370372 C399.125,471.660372 399.178,471.860372 399.203,471.960372 C399.216,472.010372 399.222,472.040372 399.221,472.040372 L399.216,472.010372 L399.211,471.990372 L399.207,471.970372 L399.205,471.960372 Z"></path><path fill="#DCB1A3" d="M407.796,454.470372 C409.158,446.290372 403.638,438.570372 395.466,437.200372 L377.466,434.200372 C369.294,432.840372 361.566,438.360372 360.204,446.530372 C358.842,454.710372 364.362,462.430372 372.534,463.800372 L390.534,466.800372 C398.706,468.160372 406.434,462.640372 407.796,454.470372 Z"></path><path fill="#EBBAAA" d="M278.459 57.8183718C298.962 53.5763718 319.021 66.7583718 323.263 87.2613718 330.209 120.830372 334.291 182.230372 334.807 244.970372 335.325 308.120372 332.271 377.320372 323.464 426.860372 319.8 447.470372 300.118 461.210372 279.504 457.550372 258.89 453.880372 245.15 434.200372 248.815 413.590372 256.401 370.910372 259.495 307.180372 258.989 245.600372 258.48 183.610372 254.365 128.480372 249.016 102.620372 244.774 82.1193718 257.956 62.0603718 278.459 57.8183718zM136.533 56.6093718C115.929 52.8903718 96.211 66.5783718 92.492 87.1823718 82.061 144.970372 85.291 215.080372 92.269 277.180372 99.326 339.990372 110.613 397.800372 117.907 432.190372 122.251 452.670372 142.377 465.750372 162.858 461.400372 183.339 457.060372 196.421 436.930372 192.076 416.450372 185.026 383.210372 174.284 328.080372 167.615 268.720372 160.866 208.650372 158.672 147.370372 167.106 100.650372 170.825 80.0473718 157.138 60.3293718 136.533 56.6093718z"></path><polygon fill="#928057" points="54.369 35.742 208.8 35.742 198.024 363.742 34.113 343.686"></polygon><polygon fill="#89764B" points="29.924 361 31.924 339 200.924 352 198.924 374"></polygon><ellipse cx="208.363" cy="55.866" fill="#928057" rx="116.371" ry="55.123"></ellipse><polygon fill="#928057" points="203.148 35.742 362.507 35.742 380.354 337.775 230.351 361.742"></polygon><polygon fill="#89764B" points="384 357.651 383 336.164 227.924 349 229.924 371"></polygon></g></g><g transform="translate(0 436)"><path fill="#EBBAAA" d="M524.312 163.858C542.644 153.091 566.233 159.224 577 177.556 578.762 180.556 580.553 183.589 582.359 186.647 592.167 203.256 602.407 220.598 610.749 237.288 620.647 257.091 629.58 279.177 632.314 302.402 635.186 326.791 631.124 351.804 616.273 375.538 602.001 398.346 579.501 417.201 550.368 433.563 531.831 443.974 508.365 437.387 497.954 418.85 487.543 400.314 494.13 376.847 512.667 366.436 535.169 353.799 545.921 342.827 551.008 334.698 555.515 327.495 556.919 320.46 555.853 311.404 554.649 301.185 550.24 288.429 541.883 271.71 534.852 257.644 526.234 243.036 516.396 226.361 514.512 223.169 512.584 219.901 510.614 216.547 499.847 198.215 505.98 174.626 524.312 163.858zM256.965 78.481C276.554 89.246 283.707 113.853 272.942 133.442 263.729 150.206 253.378 166.424 243.654 181.658 240.926 185.932 238.248 190.129 235.658 194.238 223.447 213.61 211.996 232.839 201.917 254.97 182.144 298.384 171.725 305.857 171.725 398.029 171.725 420.38 153.606 438.5 131.254 438.5 108.902 438.5 90.782 420.38 90.782 398.029 90.782 295.527 103.193 276.446 128.254 221.421 140.591 194.333 154.312 171.495 167.181 151.078 170.332 146.08 173.373 141.312 176.316 136.698 185.758 121.896 194.194 108.673 202.005 94.459 212.769 74.87 237.376 67.717 256.965 78.481z"></path><path fill="#3C4356" d="M205.757,68.285 C245.858,30.164 310.557,37.016 341.784,82.689 C370.904,125.282 358.237,183.595 314.07,210.266 L196.688,281.151 L82.635,185.33 L205.757,68.285 Z"></path><path fill="#3C4356" d="M527.141848,74.3614514 C490.516848,32.8904514 419.809703,30.6931307 384.720703,73.4711307 C351.998703,113.363131 365.193848,175.942451 406.867848,206.362451 L517.624848,287.208451 L639.594848,201.691451 L527.141848,74.3614514 Z"></path><path fill="#3C4356" d="M207.413,149.71 C210.714,91.066 258.701,44.904 317.429,43.878 L395.44,42.517 C456.865,41.445 507.719,89.99 509.5,151.398 L514.005,306.723 L515.931,503.002 C515.931,503.002 413.076,509.002 355.076,509.002 C297.076,509.002 195.942,503.002 195.942,503.002 L198.27,312.181 L207.413,149.71 Z"></path><path fill="#46547A" d="M390.286254,229.868727 C389.172918,227.734192 387.493479,226.69527 385.144159,226.69527 L364.387126,226.69527 C363.964283,226.695929 363.563296,226.507288 363.293948,226.180993 C363.0246,225.854698 362.91511,225.424935 362.995453,225.009365 L369.505631,191.18746 C369.615437,190.722395 369.681768,190.248111 369.703766,189.770741 C369.694317,186.696499 367.104345,184 364.151183,184 L363.35864,184 C361.943373,184.217864 360.658259,184.951052 359.749736,186.058966 L359.443097,186.465094 L319.146053,239.724412 C317.794823,241.455749 317.623328,243.833039 318.712041,245.740757 C319.714855,247.661995 321.688914,248.878476 323.854136,248.909488 L344.611169,249.022826 C345.027245,249.025091 345.421244,249.210524 345.688417,249.529826 C345.95559,249.849128 346.068863,250.269943 345.998122,250.680392 L339.393595,289.220028 C338.982648,291.866978 340.393558,294.461489 342.837382,295.552777 L342.893992,295.581111 C343.613935,295.895729 344.397697,296.036467 345.181993,295.99196 C346.851992,295.99196 348.361603,295.184428 349.540978,293.630754 L389.819263,235.946552 C391.201886,234.20687 391.38686,231.799709 390.286297,229.868814 L390.286254,229.868727 Z"></path><circle cx="353.526" cy="77.971" r="70.747" fill="#212737" transform="rotate(-1 353.526 77.971)"></circle><rect width="93.992" height="122.831" x="306.88" y="1.415" fill="#EBBAAA" rx="46.996" transform="rotate(-1 353.876 62.831)"></rect><path fill="#C5585C" d="M548.319,448.758 C551.435,460.804 527.254,477.477 494.31,485.997 C461.367,494.516 432.135,491.657 429.019,479.611 C425.082,475.404 420.881,446.54 426.702,441.266 C436.018,432.826 460.45,438.713 480.726,433.469 C501.001,428.225 520.307,412.452 532.547,415.317 C541.181,421.158 547.053,443.861 548.319,448.758 Z"></path><ellipse cx="480.166" cy="433.139" fill="#FF6766" rx="56.555" ry="22.53" transform="rotate(-14.5 480.166 433.139)"></ellipse><path fill="#C5585C" d="M451.695,392.191 C450.816,383.883 456.152,376.185 464.24,374.093 C472.084,372.064 480.263,375.903 483.714,383.233 L496.078,409.493 C501.888,421.833 495.044,436.415 481.84,439.83 C468.971,443.158 456.152,434.272 454.752,421.054 L451.695,392.191 Z"></path><circle cx="464.608" cy="371.148" r="35.864" fill="#FF6766" transform="rotate(-14.5 464.608 371.148)"></circle><circle cx="516.807" cy="395.789" r="43.044" fill="#EBBAAA" transform="rotate(-1 516.807 395.789)"></circle><rect width="271.221" height="184.824" x="34.025" y="335.591" fill="#C5CED2" transform="scale(-1 1) rotate(-14 0 1809.57)"></rect><rect width="271.221" height="184.824" x="19.257" y="342.674" fill="#D4DDE1" transform="scale(-1 1) rotate(-14 0 1696.377)"></rect><path fill="#7193B1" d="M325.586,392.803 C326.317,389.873 324.534,386.905 321.603,386.174 L231.392,363.682 C229.886,363.307 228.292,363.589 227.006,364.458 L194.514,386.431 C193.228,387.3 191.633,387.583 190.127,387.207 L52.6241,352.924 C49.6938,352.193 46.726,353.976 45.9954,356.906 L11.0717,496.978 C10.3411,499.908 12.1243,502.876 15.0546,503.606 L276.097,568.69 C279.027,569.42 281.995,567.64 282.725,564.71 L325.586,392.803 Z"></path><path fill="#EBBAAA" d="M152.46,262.47 C173.74,269.31 185.446,292.105 178.606,313.385 C166.336,351.557 166.551,380.334 167.613,399.935 C168.589,417.946 172.598,425.799 173.275,427.124 C173.383,427.336 173.406,427.38 173.317,427.272 C187.526,444.526 185.058,470.032 167.804,484.242 C150.55,498.451 125.044,495.982 110.834,478.728 C96.189,460.945 88.406,434.167 86.7884,404.315 C85.1005,373.166 86.8154,334.443 101.545,288.615 C108.385,267.336 131.181,255.63 152.46,262.47 Z"></path></g><g transform="translate(128.837 .435)"><ellipse cx="59.498" cy="308.846" fill="#EBBAAA" rx="59.498" ry="56.435"></ellipse><ellipse cx="390.61" cy="313.222" fill="#EBBAAA" rx="59.498" ry="56.435"></ellipse><path fill="#EED4CC" d="M54.7648,203.7423 C49.6298,105.5833 127.8358,23.1803 226.1288,23.1803 C324.8278,23.1803 403.1828,106.2383 397.4368,204.7703 L389.2648,344.8803 C384.1978,431.7593 312.2668,499.6173 225.2398,499.6173 C138.3568,499.6173 66.6818,431.5943 62.1438,344.8293 L54.7648,203.7423 Z"></path><path fill="#C99584" d="M201.637042,395.928917 C229.001925,408.003273 262.838458,410.479117 297.379133,402.368598 C301.411593,401.421733 303.912962,397.385193 302.966098,393.352733 C302.019233,389.320272 297.982693,386.818903 293.950233,387.765768 C262.489142,395.153168 231.976628,392.920545 207.692323,382.205449 C203.902692,380.533329 199.475068,382.249911 197.802949,386.039542 C196.130829,389.829173 197.847411,394.256797 201.637042,395.928917 Z" transform="rotate(-21 250.165 394.326)"></path><path fill="#393939" d="M186.8238 214.3463L121.4648 207.1273C120.8388 207.0583 120.2148 207.2813 119.7748 207.7323L106.9598 220.8513C105.7438 222.0953 106.5348 224.1933 108.2698 224.3263L188.5938 230.4693C191.4908 230.6913 193.6928 227.9103 192.8118 225.1413L190.2798 217.1783C189.7888 215.6343 188.4348 214.5243 186.8238 214.3463zM259.7348 213.7003L325.2098 207.6233C325.8378 207.5643 326.4578 207.7983 326.8898 208.2573L339.4738 221.5973C340.6678 222.8633 339.8408 224.9473 338.1038 225.0493L257.6848 229.7903C254.7838 229.9603 252.6308 227.1423 253.5598 224.3883L256.2298 216.4713C256.7478 214.9363 258.1218 213.8503 259.7348 213.7003z"></path><path fill="#000" d="M163.5298 251.6083C170.3208 251.6083 175.8248 257.1123 175.8248 263.9033L175.8248 292.8663C175.8248 299.6563 170.3198 305.1613 163.5298 305.1613 156.7388 305.1613 151.2348 299.6563 151.2348 292.8653L151.2348 263.9033C151.2348 257.1123 156.7398 251.6073 163.5298 251.6083zM288.2748 251.6083C295.0658 251.6083 300.5698 257.1123 300.5698 263.9033L300.5698 292.8663C300.5698 299.6563 295.0648 305.1613 288.2748 305.1613 281.4838 305.1613 275.9798 299.6563 275.9798 292.8653L275.9798 263.9033C275.9798 257.1123 281.4848 251.6073 288.2748 251.6083z"></path><path fill="#EBBAAA" d="M207.3758,302.1123 C209.5638,296.1823 210.9948,292.2053 211.3438,289.6623 L228.5998,292.0303 C227.9658,296.6483 225.8478,302.3793 224.0398,307.2693 C223.9308,307.5633 223.8238,307.8533 223.7178,308.1403 C221.6398,313.7743 219.7308,319.0533 218.8048,323.7303 C217.8188,328.7103 218.4218,330.8093 218.8478,331.4763 C218.8478,331.4763 218.8488,331.4773 218.8498,331.4793 C218.9048,331.5723 219.9668,333.3673 226.6738,333.3673 L226.6738,350.7853 C217.0948,350.7853 208.7928,348.0933 204.1668,340.8503 C199.9438,334.2353 200.5368,326.3153 201.7188,320.3473 C202.9578,314.0893 205.3868,307.5043 207.3638,302.1443 L207.3758,302.1123 Z"></path><path fill="#6E6C6C" d="M342.6608 138.1773C339.3208 110.1473 336.3068 90.02 334.0798 71.3333 332.5028 58.0968 332.3388 54.7207 369.9668 82.4559 407.5948 110.1913 413.2358 171.0403 402.9998 222.7603L393.5238 282.1273 381.9058 279.2553 380.3728 203.3653C361.4138 184.2813 346.0008 166.2073 342.6608 138.1773zM79.5658 168.0743C81.1198 139.8913 77.9448 141.3423 78.9808 122.5533 79.7148 109.2453 84.3008 112.1573 60.5428 136.5603 47.4298 150.0293 52.3668 207.8973 55.1578 245.7433L58.4748 280.6243 63.7748 280.9163 66.1678 237.5283C75.5338 207.4633 78.0118 196.2573 79.5658 168.0743z"></path><path fill="#282C35" d="M230.2398,6.27502 L230.2388,6.27502 C230.1598,6.27502 230.0798,6.27502 229.9998,6.27502 C229.9208,6.27502 229.8408,6.27502 229.7618,6.27502 L229.7608,6.27502 C178.9448,6.45153 57.2738,34.6264 52.7018,166.4813 C66.2128,150.2393 87.0798,143.1543 105.6138,132.5553 C144.6298,110.2433 171.2798,108.5653 222.7608,108.5653 C274.2408,108.5653 310.1488,118.1453 340.2408,132.5553 C367.1588,145.4463 380.5128,147.2683 406.8218,166.4813 C402.2488,34.6267 281.0528,6.45154 230.2398,6.27502 Z"></path><polygon fill="#282C35" points="97.932 46.18 87.503 83.227 224.972 61.937 382.076 90.657 381.745 75.414 370.538 70.755 370.278 58.779 356.151 59.086 355.749 40.576 337.586 40.971 333.242 26.905 317.096 27.256 307.203 13.31 290.648 18.027 285.413 9.426 268.259 9.799 268.046 0 245.05 10.303 238.783 .636 228.905 10.655 218.601 1.075 199.642 11.291 187.32 1.755 174.415 11.839 165.334 12.036 155.432 20.966 151.207 12.343 134.455 31.226 123.261 27.112 109.09 48.661"></polygon><path fill="#FFF" fill-opacity=".35" d="M207.4878,286.2193 C207.4878,316.4033 183.0188,340.8723 152.8338,340.8723 C122.6498,340.8723 98.1808,316.4033 98.1808,286.2193 C98.1808,256.0343 122.6498,231.5653 152.8338,231.5653 C183.0188,231.5653 207.4878,256.0343 207.4878,286.2193 Z"></path><path fill="#2E2622" d="M152.8338,340.8723 C122.6498,340.8723 98.1808,316.4033 98.1808,286.2193 C98.1808,256.0343 122.6498,231.5653 152.8338,231.5653 C183.0188,231.5653 207.4878,256.0343 207.4878,286.2193 C207.4878,316.4033 183.0188,340.8723 152.8338,340.8723 Z M152.8338,330.8723 C177.4958,330.8723 197.4878,310.8803 197.4878,286.2193 C197.4878,261.5573 177.4958,241.5653 152.8338,241.5653 C128.1728,241.5653 108.1808,261.5573 108.1808,286.2193 C108.1808,310.8803 128.1728,330.8723 152.8338,330.8723 Z"></path><path fill="#FFF" fill-opacity=".35" d="M343.2678,288.7813 C343.2678,318.9653 318.7988,343.4343 288.6138,343.4343 C258.4298,343.4343 233.9608,318.9653 233.9608,288.7813 C233.9608,258.5963 258.4298,234.1273 288.6138,234.1273 C318.7988,234.1273 343.2678,258.5963 343.2678,288.7813 Z"></path><path fill="#2E2622" d="M288.6138,343.4343 C258.4298,343.4343 233.9608,318.9653 233.9608,288.7813 C233.9608,258.5963 258.4298,234.1273 288.6138,234.1273 C318.7988,234.1273 343.2678,258.5963 343.2678,288.7813 C343.2678,318.9653 318.7988,343.4343 288.6138,343.4343 Z M288.6138,333.4343 C313.2758,333.4343 333.2678,313.4423 333.2678,288.7813 C333.2678,264.1193 313.2758,244.1273 288.6138,244.1273 C263.9528,244.1273 243.9608,264.1193 243.9608,288.7813 C243.9608,313.4423 263.9528,333.4343 288.6138,333.4343 Z"></path><path fill="#2E2622" d="M232.2458,287.4943 C230.0918,286.3693 226.3968,285.0653 220.7238,285.0653 C215.0498,285.0653 211.2288,286.3703 208.9368,287.5263 C207.7798,288.1103 206.9828,288.6713 206.5168,289.0413 C206.2828,289.2263 206.1318,289.3633 206.0598,289.4313 C206.0398,289.4503 206.0258,289.4643 206.0188,289.4713 C204.1618,291.4613 201.0458,291.6023 199.0158,289.7723 C196.9648,287.9233 196.8018,284.7623 198.6508,282.7113 L202.3288,286.0273 C198.6508,282.7113 198.6528,282.7093 198.6548,282.7063 L198.6588,282.7023 L198.6668,282.6923 L198.6858,282.6723 C198.6988,282.6573 198.7138,282.6413 198.7298,282.6243 C198.7628,282.5893 198.8008,282.5493 198.8458,282.5033 C198.9338,282.4123 199.0468,282.3013 199.1838,282.1713 C199.4578,281.9113 199.8298,281.5803 200.3048,281.2043 C201.2568,280.4503 202.6208,279.5123 204.4328,278.5983 C208.0828,276.7573 213.4418,275.0653 220.7238,275.0653 C228.0068,275.0653 233.2908,276.7583 236.8748,278.6303 C238.6538,279.5583 239.9808,280.5143 240.9058,281.2883 C241.3678,281.6753 241.7288,282.0163 241.9958,282.2863 C242.1288,282.4213 242.2388,282.5383 242.3258,282.6343 C242.3688,282.6823 242.4068,282.7243 242.4388,282.7613 C242.4558,282.7803 242.4698,282.7973 242.4838,282.8133 L242.5028,282.8353 L242.5108,282.8463 L242.5158,282.8513 C242.5178,282.8533 242.5198,282.8563 238.7298,286.0173 L242.5198,282.8563 C244.2888,284.9763 244.0038,288.1293 241.8828,289.8983 C239.7898,291.6443 236.6898,291.3893 234.9088,289.3423 C234.9028,289.3363 234.8948,289.3273 234.8838,289.3163 C234.8268,289.2583 234.6958,289.1313 234.4868,288.9563 C234.0698,288.6063 233.3368,288.0643 232.2458,287.4943 Z"></path></g></g></g></svg>